<svg xmlns="http://www.w3.org/2000/svg" version="1.1" xmlns:xlink="http://www.w3.org/1999/xlink" xmlns:svgjs="http://svgjs.dev/svgjs" width="1000" height="373" viewBox="0 0 1000 373"><g transform="matrix(1,0,0,1,-0.6060531021990982,-0.4916831713813963)"><svg viewBox="0 0 396 148" data-background-color="#ffffff" preserveAspectRatio="xMidYMid meet" height="373" width="1000" xmlns="http://www.w3.org/2000/svg" xmlns:xlink="http://www.w3.org/1999/xlink"><g id="tight-bounds" transform="matrix(1,0,0,1,0.2399970284708388,0.19509144601728678)"><svg viewBox="0 0 395.52 147.60981710796543" height="147.60981710796543" width="395.52"><g><svg viewBox="0 0 628.6140522627213 234.60155058150613" height="147.60981710796543" width="395.52"><g transform="matrix(1,0,0,1,233.0940522627214,72.49528434699712)"><svg viewBox="0 0 395.52 89.6109818875119" height="89.6109818875119" width="395.52"><g id="textblocktransform"><svg viewBox="0 0 395.52 89.6109818875119" height="89.6109818875119" width="395.52" id="textblock"><g><svg viewBox="0 0 395.52 89.6109818875119" height="89.6109818875119" width="395.52"><g transform="matrix(1,0,0,1,0,0)"><svg width="395.52" viewBox="2.8499999046325684 -35.150001525878906 157.33999633789062 35.650001525878906" height="89.6109818875119" data-palette-color="#233565"><path d="M23.7-14.25L17.95-14.25 17.95-17.7 27.5-17.7 27.5-0.7Q21.2 0.5 16.25 0.5L16.25 0.5Q8.7 0.5 5.78-3.85 2.85-8.2 2.85-17.28 2.85-26.35 5.78-30.73 8.7-35.1 16.15-35.1L16.15-35.1Q20.8-35.1 25.8-34.1L25.8-34.1 27.5-33.8 27.35-30.6Q21.15-31.65 16.6-31.65L16.6-31.65Q10.85-31.65 8.85-28.33 6.85-25 6.85-17.28 6.85-9.55 8.85-6.23 10.85-2.9 16.55-2.9L16.55-2.9Q20.05-2.9 23.7-3.6L23.7-3.6 23.7-14.25ZM38.65-34.6L38.65-10.4Q38.65-2.9 46.75-2.9L46.75-2.9Q50.95-2.9 53.07-4.67 55.2-6.45 55.2-10.4L55.2-10.4 55.2-34.6 59-34.6 59-10.5Q59-4.7 55.92-2.1 52.85 0.5 46.85 0.5 40.85 0.5 37.82-2.1 34.8-4.7 34.8-10.5L34.8-10.5 34.8-34.6 38.65-34.6ZM71.09 0L67.25 0 67.25-34.6 71.09-34.6 71.09 0ZM97.14 0L93.29 0 93.29-6.45 77.29-6.45 77.29-9.45 86.69-33 90.89-33 81.34-9.85 93.29-9.85 93.29-20.15 97.14-20.15 97.14-9.85 101.34-9.85 101.34-6.45 97.14-6.45 97.14 0ZM111.14-34.6L111.14-10.4Q111.14-2.9 119.24-2.9L119.24-2.9Q123.44-2.9 125.57-4.67 127.69-6.45 127.69-10.4L127.69-10.4 127.69-34.6 131.49-34.6 131.49-10.5Q131.49-4.7 128.42-2.1 125.34 0.5 119.34 0.5 113.34 0.5 110.32-2.1 107.29-4.7 107.29-10.5L107.29-10.5 107.29-34.6 111.14-34.6ZM149.29-31.75L149.29-31.75Q141.79-31.75 141.79-26.1L141.79-26.1Q141.79-22.95 143.51-21.78 145.24-20.6 150.51-19.43 155.79-18.25 157.99-16.38 160.19-14.5 160.19-10.2L160.19-10.2Q160.19 0.45 149.14 0.45L149.14 0.45Q145.49 0.45 139.99-0.4L139.99-0.4 138.19-0.65 138.59-3.85Q145.39-2.95 148.94-2.95L148.94-2.95Q156.34-2.95 156.34-9.9L156.34-9.9Q156.34-12.7 154.71-13.93 153.09-15.15 148.64-16L148.64-16Q142.79-17.25 140.34-19.23 137.89-21.2 137.89-25.85L137.89-25.85Q137.89-35.15 149.04-35.15L149.04-35.15Q152.69-35.15 157.79-34.4L157.79-34.4 159.49-34.15 159.14-30.9Q152.19-31.75 149.29-31.75Z" opacity="1" transform="matrix(1,0,0,1,0,0)" fill="#233565" class="wordmark-text-0" data-fill-palette-color="primary" id="text-0"></path></svg></g></svg></g></svg></g></svg></g><g><svg viewBox="0 0 211.93905010264513 234.60155058150613" height="234.60155058150613" width="211.93905010264513"><g><svg version="1.0" xmlns="http://www.w3.org/2000/svg" xmlns:xlink="http://www.w3.org/1999/xlink" x="0" y="0" viewBox="0 0 90.34000396728516 100" enable-background="new 0 0 90.34 100" xml:space="preserve" width="211.93905010264513" height="234.60155058150613" class="icon-icon-0" data-fill-palette-color="accent" id="icon-0"><path d="M81.382 85.761c2.605-3.183 3.518-7.61 2.003-11.753l-1.374-3.794h8.329V0H0v70.213h48.582l5.299 14.537c1.504 4.14 5.053 6.952 9.093 7.709l2.49 7.537L86.311 100 81.382 85.761zM73.803 47.825c-4.451 1.622-6.751 6.554-5.129 11.008l3.213 8.764H2.615V2.615h85.115v64.983h-6.687L73.803 47.825z" fill="#0074d9" data-fill-palette-color="accent"></path><path d="M80.005 35.982c-19.238 19.234-50.433 19.234-69.671 0L38.604 7.699c3.622 3.628 9.501 3.628 13.123 0L80.005 35.982zM59.951 30.237c3.078-2.114 3.867-6.319 1.768-9.409-2.117-3.078-6.33-3.87-9.404-1.76-3.085 2.124-3.867 6.326-1.757 9.401C52.664 31.551 56.87 32.336 59.951 30.237zM52.653 34.214c-0.138-0.391-0.314-0.764-0.623-1.086 0 0-5.489-5.793-6.845-7.218 0.09-1.723 0.304-6.185 0.304-6.185 0.073-1.602-1.176-2.975-2.784-3.047-1.604-0.08-2.975 1.159-3.047 2.771l-0.346 7.426c-0.042 0.792 0.246 1.574 0.789 2.145l2.508 2.649-7.53 4.97 0.405-5.686c-0.194-2.193-2.131-3.812-4.313-3.625 0 0-7.16 0.495-9.757 0.712-1.643 0.145-2.871 1.595-2.722 3.241 0.138 1.643 1.594 2.867 3.233 2.729 1.812-0.159 6.05-0.304 7.769-0.446 0 0-1.487 4.33-1.179 6.468 0.194 1.401 0.595 2.812 1.449 4.064 2.643 3.857 7.917 4.846 11.771 2.2 1.38-0.941 8.239-5.631 9.529-6.517C53.079 38.527 53.643 36.131 52.653 34.214z" fill="#0074d9" data-fill-palette-color="accent"></path></svg></g></svg></g></svg></g><defs></defs></svg><rect width="395.52" height="147.60981710796543" fill="none" stroke="none" visibility="hidden"></rect></g></svg></g></svg>